# xmcd CD database file
#
# Track frame offsets:
#	150
#	41555
#	66308
#	86632
#	98338
#	124371
#	132476
#	153105
#	189336
#
# Disc length: 2855 seconds
#
# Revision: 0
# Processed by: cddbd v1.5.1PL0 Copyright (c) Steve Scherf et al.
# Submitted via: CDex 1.51
#
DISCID=720b2509
DTITLE=Santa Monica College Jazz Band - Winter Concert 2004
DYEAR=2004
DGENRE=Jazz
TTITLE0=Jeff Hamilton - Max
TTITLE1=Herbie Phillips - An Apple For Christa
TTITLE2=J. Burke - Here's That Rainy Day
TTITLE3=Richard Rodgers - The Lady Is a Tramp
TTITLE4=Arthur Herzog - God Bless the Child
TTITLE5=Billy Ekstine - I Love the Rhythm of a Riff
TTITLE6=Duke Ellington - Sophisticated Lady
TTITLE7=Joe LaBarbera - Message from Art
TTITLE8=Nick Lane - Boneheads
EXTD=YEAR: 2004
EXTT0=
EXTT1=
EXTT2=
EXTT3=
EXTT4=
EXTT5=
EXTT6=
EXTT7=
EXTT8=
PLAYORDER=
